<svg width="154" height="80" viewBox="0 0 154 80" fill="none" xmlns="http://www.w3.org/2000/svg">
<g id="Isolation_Mode" clip-path="url(#clip0_4943_28987)">
<path id="Vector" d="M101.863 80C105.693 80 108.798 76.9216 108.798 73.1241C108.798 69.3267 105.693 66.2483 101.863 66.2483C98.0333 66.2483 94.9285 69.3267 94.9285 73.1241C94.9285 76.9216 98.0333 80 101.863 80Z" fill="#84F200"/>
<path id="Vector_2" d="M105.958 0C91.9345 1.68076 79.2759 9.84447 72.1211 22.1337L68.1143 28.9877H29.6762L33.5729 22.3083C41.6083 8.49113 56.4684 0 72.5614 0H105.958Z" fill="white"/>
<path id="Vector_3" d="M65.6927 33.1351L61.8401 39.7708L48.8072 62.1228H44.3822L34.0351 79.8909H0L23.2918 39.9454L27.2545 33.1351H65.6927Z" fill="white"/>
<path id="Vector_4" d="M153.488 0L153.268 0.371078L136.581 28.9877H68.9289L72.7155 22.4829C80.6629 8.86221 95.4789 0.371078 111.352 0.371078H153.246L153.488 0Z" fill="#84F200"/>
<path id="Vector_5" d="M134.159 33.1351L117.252 62.1228H83.2386L72.8916 79.8909H39.2527L49.5997 62.1228L66.5072 33.1351H134.159Z" fill="#84F200"/>
</g>
<defs>
<clipPath id="clip0_4943_28987">
<rect width="153.488" height="80" fill="white"/>
</clipPath>
</defs>
</svg>
